<?xml version="1.0" encoding="iso-8859-1"?>
<!-- Uploaded to: SVG Repo, www.svgrepo.com, Generator: SVG Repo Mixer Tools -->
<svg height="800px" width="800px" version="1.1" id="Layer_1" xmlns="http://www.w3.org/2000/svg" xmlns:xlink="http://www.w3.org/1999/xlink" 
	 viewBox="0 0 496.2 496.2" xml:space="preserve">
<path style="fill:#E5AA17;" d="M248.1,0C111.1,0,0,111.1,0,248.1s111.1,248.1,248.1,248.1s248.1-111.1,248.1-248.1S385.1,0,248.1,0z
	"/>
<polygon style="fill:#C7C8C9;" points="247.9,317 208.3,322.3 210.2,335.4 247.8,363.5 286,335.4 287.9,322.3 "/>
<path style="fill:#D61E1E;" d="M418.5,382.8c-8.5-27.3-81.2-49.3-170.8-49.3s-161.5,22-170,49.3c-2.6,8.5-5.5,22.2-8.3,37.4
	c45.1,46.9,108.5,76,178.7,76s133.6-29.2,178.7-76C424.1,405,421.2,391.2,418.5,382.8z"/>
<g>
	<path style="fill:#E2A379;" d="M287,282.1h-77.8c12.1,36.6,1,53.3,1,53.3l26.9,6.1h22l26.9-6.1C286,335.4,274.9,318.7,287,282.1z"
		/>
	<path style="fill:#E2A379;" d="M247.9,317l-37.7,18.4c0,0,16.8,28.1,37.6,28.1s38.2-28.1,38.2-28.1L247.9,317z"/>
</g>
<g>
	<path style="fill:#F4B382;" d="M248.1,61.6c-48.7,0-88.3,21.2-88.3,113.6c0,31.3,6.2,55.8,15.5,74.7c20.4,41.6,55.7,56.1,72.8,56.1
		s52.4-14.5,72.8-56.1c9.3-18.9,15.5-43.4,15.5-74.7C336.4,82.8,296.8,61.6,248.1,61.6z"/>
	<path style="fill:#F4B382;" d="M161.4,178c-8.4,1.4-14.9,5.1-10.1,32.9s10.7,29.1,19.1,27.7L161.4,178z"/>
	<path style="fill:#F4B382;" d="M334.9,178l-9,60.6c8.4,1.4,14.3,0.1,19.1-27.7C349.7,183.1,343.3,179.5,334.9,178z"/>
</g>
<path style="fill:#E5A173;" d="M259.3,255.1c-3.2-0.5-11.2,2.6-11.2,2.6s-8.1-3-11.3-2.6c-5.2,0.7-12.8,4.8-12.8,6.2
	c0,2.3,10.8,8.5,24.2,8.5c13.4,0,24.2-6.3,24.2-8.5C272.3,261.3,264.5,255.8,259.3,255.1z"/>
<path style="fill:#D89364;" d="M248.1,262.4c-14.3,0-24.2-1.1-24.2-1.1c0,2.3,10.8,11.1,24.2,11.1s24.2-8.8,24.2-11.1
	C272.3,261.3,262.4,262.4,248.1,262.4z"/>
<g>
	<path style="fill:#30302E;" d="M248.1,59.1c-58,0-88.3,23.7-88.3,116.1l38.8-68.4c0,0,27.5,4.3,49.5,4.3s46.2-4.3,46.2-4.3
		l42.1,68.4C336.4,82.8,306.1,59.1,248.1,59.1z"/>
	<path style="fill:#30302E;" d="M180.1,138.6l-14.6,2.2c-4.2,10.9-5.6,24.4-5.6,37.5c0,0,8.8-1.9,8.8,2.6l2.8,27.6l3.9-1.9
		C175,183.6,180.1,138.6,180.1,138.6z"/>
	<path style="fill:#30302E;" d="M330.8,140.8l-14.6-0.4c0,0,5.1,43.2,4.9,66.2l3.9,1.9l2.8-27.6c0-4.5,8.8-2.6,8.8-2.6
		C336.5,165.1,335.1,151.7,330.8,140.8z"/>
</g>
<g>
	<polygon style="fill:#D4D6D8;" points="287.9,322.3 248.1,363.9 284.7,374.1 305.8,337.8 	"/>
	<polygon style="fill:#D4D6D8;" points="208.3,322.3 190.4,337.8 211.5,374.1 248.1,363.9 	"/>
</g>
<ellipse style="fill:#BA1C1C;" cx="248.1" cy="56.9" rx="10.5" ry="6.5"/>
<path style="fill:#D61E1E;" d="M319.1,85.3c-12.6-18.6-47.2-28.8-70.8-28.8s-58.4,10.2-71,28.8c-11.8,17.3-20,56-15.4,56
	s60.3-16.3,86.2-16.3c33.3,0,83.1,16.3,86.3,16.3C337.5,141.3,330.9,102.6,319.1,85.3z"/>
<circle style="fill:#931616;" cx="248.1" cy="98.1" r="14"/>
<path style="fill:#BA1C1C;" d="M248.1,123.7c-41,0-71.9,14-71.9,14s2.8,18.6,10.5,18.6c18.2,1.2,46.3-8.3,61.4-8.3
	c14.8,0,42.3,9.5,60.3,8.3c8.8,0,11.7-18.7,11.7-18.7S289.1,123.7,248.1,123.7z"/>
</svg>